<svg width="75" height="50" viewBox="0 0 75 50" fill="none" xmlns="http://www.w3.org/2000/svg">
<path d="M73.9719 35.8843C73.9719 43.0522 68.1338 48.8806 60.9554 48.8806H59.2774C52.099 48.8806 46.2609 43.0485 46.2609 35.8843V12.7127H47.3551V35.8843C47.3551 42.4627 52.7049 47.8172 59.2774 47.8172H60.9554C67.5316 47.8172 72.8777 42.4627 72.8777 35.8843V14.0597C72.8777 7.48134 67.5279 2.12687 60.9554 2.12687H21.3992V1.04851L60.9554 1.0597C68.1338 1.0597 73.9719 6.89179 73.9719 14.056V35.8806V35.8843ZM48.3795 12.7127H49.4737V35.8843C49.4737 41.2948 53.8688 45.694 59.2737 45.694H60.9517C66.3566 45.694 70.7517 41.2948 70.7517 35.8843V14.0597C70.7517 8.64925 66.3566 4.25 60.9517 4.25L21.3992 4.26866V3.17164L60.9517 3.18284C66.9588 3.18284 71.8459 8.06343 71.8459 14.0597V35.8843C71.8459 41.8806 66.9588 46.7612 60.9517 46.7612H59.2737C53.2667 46.7612 48.3795 41.8843 48.3795 35.8843V12.7127ZM50.5018 12.7127H51.596V35.8843C51.596 40.1231 55.0401 43.5709 59.2737 43.5709H60.9517C65.1853 43.5709 68.6294 40.1231 68.6294 35.8843V14.0597C68.6294 9.82089 65.1853 6.37313 60.9517 6.37313H21.4065V5.31716L60.9554 5.3097C65.7911 5.3097 69.7273 9.23507 69.7273 14.0634V35.8881C69.7273 40.7164 65.7911 44.6418 60.9554 44.6418H59.2774C54.4416 44.6418 50.5055 40.7164 50.5055 35.8881V12.7164L50.5018 12.7127ZM52.6241 12.7127H53.7183V35.8769C53.7183 38.9478 56.2078 41.4478 59.2701 41.4478H60.9481C64.0103 41.4478 66.4998 38.9478 66.4998 35.8769V14.0261C66.4998 10.9552 64.0067 8.45522 60.9481 8.45522L21.4029 8.46642V7.41418L60.9481 7.4291C64.6125 7.4291 67.5977 10.403 67.5977 14.0597V35.8843C67.5977 39.541 64.6162 42.5149 60.9481 42.5149H59.2701C55.6056 42.5149 52.6241 39.541 52.6241 35.8843V12.7127ZM35.5613 48.9552H34.5258V9.51119H35.5613V48.9552ZM33.4977 48.9552H32.4623V9.51119H33.4977V48.9552ZM31.4342 48.9552H30.3988V9.51119H31.4342V48.9552ZM29.3707 48.9552H28.3352V9.51119H29.3707V48.9552ZM60.9554 0.00373134H20.3674L20.3784 9.50746H27.3071V50H36.5931V9.51119H60.9517C63.4449 9.51119 65.4754 11.5373 65.4754 14.0261V35.8769C65.4754 38.3657 63.4449 40.3918 60.9517 40.3918H59.2737C56.7806 40.3918 54.7501 38.3657 54.7501 35.8769V11.6642H45.2291V35.8806C45.2291 43.6306 51.5299 49.9366 59.2737 49.9366H60.9517C68.6955 49.9366 75 43.6306 75 35.8806V14.056C75 6.30597 68.6992 0 60.9517 0M7.22241 48.8955V7.39179H17.2611V8.45522H8.25786V48.8955H7.22241ZM1.0281 1.05224H17.2611V2.11567H2.06355V48.8955H1.0281V1.05224ZM17.2611 4.23134H4.12709V48.8992H3.09165V3.16418H17.2574V4.22761L17.2611 4.23134ZM17.2611 6.34328H6.19431V48.8992H5.15887V5.27612H17.2611V6.33955V6.34328ZM18.2892 9.50746V0.00373134H0V49.944H9.28596V48.8992L9.27862 9.51493H18.2892V9.50746Z" fill="#A52D2E"/>
</svg>
