<svg width="137" height="26" viewBox="0 0 137 26" fill="none" xmlns="http://www.w3.org/2000/svg">
<path d="M21.9367 0V25.5617H17.7668V14.8625L18.1728 5.80609L5.22054 25.5617H0.3125V0H4.48221V10.6992L4.11339 19.7189L17.029 0H21.9367Z" fill="#00A7B5"/>
<path d="M42.023 9.34825H35.4177V25.5615H31.2476V9.34825H24.6055V5.47705H42.023V9.34825Z" fill="#00A7B5"/>
<path d="M64.0635 15.5197C64.0635 21.5087 59.6726 26 53.5835 26C48.7863 26 44.3953 23.225 43.4727 18.2222H47.79C48.5281 20.8513 50.927 22.2755 53.5835 22.2755C56.7942 22.2755 59.1558 20.1938 59.7094 17.0537H52.2182V13.8034H59.6726C59.0822 10.7729 56.7569 8.76464 53.5468 8.76464C50.8161 8.76464 48.4912 10.2245 47.79 12.7811H43.4727C44.358 7.9239 48.6758 5.03906 53.5468 5.03906C59.6358 5.03906 64.0635 9.53095 64.0635 15.5197Z" fill="#00A7B5"/>
<path d="M86.2628 5.47705V25.5615H82.0926V9.3483H75.3766L74.048 17.7471C73.0518 23.7355 70.801 25.9994 67.3323 25.9994C66.6678 25.9994 65.9297 25.8903 65.2656 25.7806V22.0558C65.6715 22.0924 66.0774 22.1656 66.4832 22.1656C68.4389 22.1656 69.288 21.1064 69.9152 17.3816L71.8342 5.47705H86.2628Z" fill="#00A7B5"/>
<path d="M112.501 5.47705V25.5615H108.33V17.1628L108.626 10.188L101.651 20.011H101.541L94.5668 10.188L94.8616 17.1628V25.5615H90.6914V5.47705H95.5996L101.578 13.7297L107.592 5.47705H112.501Z" fill="#00A7B5"/>
<path d="M132.553 15.5197C132.553 11.6859 129.86 8.98367 126.317 8.98367C122.775 8.98367 120.266 11.6859 120.266 15.5197C120.266 19.3907 122.811 22.0564 126.317 22.0564C129.86 22.0564 132.553 19.3907 132.553 15.5197ZM136.687 5.47764V25.5621H132.516V22.2028C131.04 24.5033 128.605 26 125.432 26C120.007 26 116.059 21.6546 116.059 15.5197C116.059 9.38474 120.081 5.03906 125.395 5.03906C128.605 5.03906 131.04 6.60973 132.516 8.91031V5.47764H136.687Z" fill="#00A7B5"/>
</svg>
